HIERARCHY
ROOT Hips
{
	OFFSET 0.000000 0.000000 0.000000
	CHANNELS 6 Xposition Yposition Zposition Xrotation Yrotation Zrotation
	JOINT LeftUpLeg_virtual
	{
		OFFSET 0.000000 0.000000 0.000000
		CHANNELS 3 Xrotation Yrotation Zrotation
		JOINT LeftUpLeg
		{
			OFFSET 15.427100 -6.655098 0.678600
			CHANNELS 3 Xrotation Yrotation Zrotation
			JOINT LeftLeg
			{
				OFFSET 4.081073 -39.591068 13.024000
				CHANNELS 3 Xrotation Yrotation Zrotation
				JOINT LeftFoot
				{
					OFFSET -4.081074 -37.707932 -15.979700
					CHANNELS 3 Xrotation Yrotation Zrotation
					JOINT LeftToeBase
					{
						OFFSET 5.346399 -15.068900 20.645000
						CHANNELS 3 Xrotation Yrotation Zrotation
						JOINT LeftToe_End
						{
							OFFSET 2.754700 0.931300 11.300900
							CHANNELS 3 Xrotation Yrotation Zrotation
							End Site
							{
								OFFSET 0 0 0
							}
						}
					}
				}
			}
		}
	}
	JOINT RightUpLeg_virtual
	{
		OFFSET 0.000000 0.000000 0.000000
		CHANNELS 3 Xrotation Yrotation Zrotation
		JOINT RightUpLeg
		{
			OFFSET -15.569500 -6.655098 0.678600
			CHANNELS 3 Xrotation Yrotation Zrotation
			JOINT RightLeg
			{
				OFFSET -4.081825 -39.591045 13.023800
				CHANNELS 3 Xrotation Yrotation Zrotation
				JOINT RightFoot
				{
					OFFSET 4.081824 -37.707954 -15.979600
					CHANNELS 3 Xrotation Yrotation Zrotation
					JOINT RightToeBase
					{
						OFFSET -5.346400 -15.068900 20.645000
						CHANNELS 3 Xrotation Yrotation Zrotation
						JOINT RightToe_End
						{
							OFFSET -2.754700 0.931300 11.300900
							CHANNELS 3 Xrotation Yrotation Zrotation
							End Site
							{
								OFFSET 0 0 0
							}
						}
					}
				}
			}
		}
	}
	JOINT Spine_virtual
	{
		OFFSET 0.000000 0.000000 0.000000
		CHANNELS 3 Xrotation Yrotation Zrotation
		JOINT Spine
		{
			OFFSET -0.279200 12.230698 -2.892100
			CHANNELS 3 Xrotation Yrotation Zrotation
			JOINT Spine1
			{
				OFFSET -0.232667 10.192268 -1.242267
				CHANNELS 3 Xrotation Yrotation Zrotation
				JOINT Spine1_split
				{
					OFFSET -0.232667 10.192268 -1.242267
					CHANNELS 3 Xrotation Yrotation Zrotation
					JOINT Spine2
					{
						OFFSET -0.232667 10.192268 -1.242267
						CHANNELS 3 Xrotation Yrotation Zrotation
						JOINT Neck_virtual
						{
							OFFSET 0.000000 0.000000 0.000000
							CHANNELS 3 Xrotation Yrotation Zrotation
							JOINT Neck
							{
								OFFSET -0.418800 17.814194 8.416900
								CHANNELS 3 Xrotation Yrotation Zrotation
								JOINT Head
								{
									OFFSET 0.000000 7.031097 3.806800
									CHANNELS 3 Xrotation Yrotation Zrotation
									JOINT HeadTop_End
									{
										OFFSET 0.000000 24.646606 12.978600
										CHANNELS 3 Xrotation Yrotation Zrotation
										End Site
										{
											OFFSET 0 0 0
										}
									}
								}
							}
						}
						JOINT LeftShoulder_virtual
						{
							OFFSET 0.000000 0.000000 0.000000
							CHANNELS 3 Xrotation Yrotation Zrotation
							JOINT LeftShoulder
							{
								OFFSET 8.476499 7.247704 -3.868750
								CHANNELS 3 Xrotation Yrotation Zrotation
								JOINT LeftShoulder_split
								{
									OFFSET 8.476499 7.247704 -3.868750
									CHANNELS 3 Xrotation Yrotation Zrotation
									JOINT LeftArm
									{
										OFFSET 9.308998 -2.777710 0.208600
										CHANNELS 3 Xrotation Yrotation Zrotation
										JOINT LeftForeArm
										{
											OFFSET 29.972298 0.000000 0.000000
											CHANNELS 3 Xrotation Yrotation Zrotation
											JOINT LeftHand
											{
												OFFSET 26.026505 0.000000 0.000000
												CHANNELS 3 Xrotation Yrotation Zrotation
												End Site
												{
													OFFSET 0 0 0
												}
											}
										}
									}
								}
							}
						}
						JOINT RightShoulder_virtual
						{
							OFFSET 0.000000 0.000000 0.000000
							CHANNELS 3 Xrotation Yrotation Zrotation
							JOINT RightShoulder
							{
								OFFSET -7.570500 7.247704 -3.868750
								CHANNELS 3 Xrotation Yrotation Zrotation
								JOINT RightShoulder_split
								{
									OFFSET -7.570500 7.247704 -3.868750
									CHANNELS 3 Xrotation Yrotation Zrotation
									JOINT RightArm
									{
										OFFSET -9.308998 -2.777710 0.208500
										CHANNELS 3 Xrotation Yrotation Zrotation
										JOINT RightForeArm
										{
											OFFSET -29.972300 0.000000 0.000000
											CHANNELS 3 Xrotation Yrotation Zrotation
											JOINT RightHand
											{
												OFFSET -26.026505 0.000000 0.000000
												CHANNELS 3 Xrotation Yrotation Zrotation
												End Site
												{
													OFFSET 0 0 0
												}
											}
										}
									}
								}
							}
						}
					}
				}
			}
		}
	}
}
MOTION
Frames: 4
Frame Time: 0.03333333
4.795991 9.249046 2.972073 0.000000 0.000000 0.000000 81.666980 2.749872 -1.561532 6.667656 11.500218 18.762979 20.648881 17.410210 5.811367 33.060404 30.035081 -18.779277 -0.139179 1.217485 8.578634 0.000000 0.000000 0.000000 83.859669 -1.661194 -0.400251 -0.894730 -7.458012 -21.412124 6.879881 -2.382368 5.092896 42.041867 -22.492651 25.508767 18.661059 -2.273827 -11.964474 0.000000 0.000000 0.000000 87.038815 -1.322966 1.224198 2.718867 0.600282 -1.334132 0.676709 0.507259 0.048626 0.367617 -0.807175 0.557053 0.000000 0.000000 0.000000 -0.877969 0.331203 -0.246075 -4.617655 -12.317909 5.406080 -19.055770 -55.719966 -20.039218 0.000000 0.000000 0.000000 0.263611 0.267593 -0.361388 3.273953 -17.256029 -2.940940 -1.172369 -0.572255 -1.436286 22.725776 -20.111774 -56.623242 0.156294 -24.773702 -0.937836 0.000000 0.000000 0.000000 0.021956 0.760199 0.290172 -0.305933 11.969307 11.279710 7.858717 6.656825 -2.762225 7.026634 -10.030905 55.492367 0.508018 28.060978 1.057702 0.000000 0.000000 0.000000 
4.797564 9.244049 2.952736 0.000000 0.000000 0.000000 81.670075 2.747460 -1.563911 6.672063 11.498004 18.759113 20.674392 17.409309 5.808854 33.047788 30.044411 -18.776689 -0.146859 1.218853 8.573593 0.000000 0.000000 0.000000 83.858631 -1.657752 -0.405346 -0.895787 -7.451757 -21.399138 6.899577 -2.380755 5.087086 42.023319 -22.495955 25.508378 18.692192 -2.275014 -11.964325 0.000000 0.000000 0.000000 87.035543 -1.325227 1.230980 2.716867 0.596456 -1.332864 0.679029 0.505825 0.050626 0.355384 -0.804990 0.552167 0.000000 0.000000 0.000000 -0.872801 0.332306 -0.246337 -4.617636 -12.306699 5.399957 -19.053030 -55.706586 -20.041131 0.000000 0.000000 0.000000 0.272432 0.266129 -0.360201 3.278371 -17.273840 -2.926319 -1.175989 -0.547378 -1.440388 22.732026 -20.111550 -56.621759 0.159185 -24.742925 -0.931025 0.000000 0.000000 0.000000 0.023386 0.759346 0.292586 -0.308266 11.966631 11.271932 7.865220 6.680538 -2.767522 7.007243 -10.008500 55.479468 0.523198 28.091103 1.048323 0.000000 0.000000 0.000000 
4.798261 9.239094 2.936275 0.000000 0.000000 0.000000 81.669426 2.742480 -1.569620 6.668670 11.507941 18.769869 20.715803 17.402659 5.800273 33.039066 30.042440 -18.783181 -0.158747 1.220212 8.575665 0.000000 0.000000 0.000000 83.856999 -1.661063 -0.411611 -0.895716 -7.432164 -21.368733 6.932774 -2.372020 5.078482 42.000759 -22.491461 25.520783 18.735320 -2.281689 -11.979370 0.000000 0.000000 0.000000 87.031377 -1.329430 1.239103 2.715435 0.595669 -1.326315 0.684100 0.504383 0.052525 0.347019 -0.804655 0.548220 0.000000 0.000000 0.000000 -0.868143 0.332080 -0.245072 -4.616593 -12.289049 5.388367 -19.027466 -55.700749 -20.038708 0.000000 0.000000 0.000000 0.281999 0.264535 -0.361494 3.282388 -17.313652 -2.918994 -1.183634 -0.535440 -1.446946 22.753565 -20.114723 -56.604418 0.143546 -24.692329 -0.937806 0.000000 0.000000 0.000000 0.028879 0.758595 0.293687 -0.309576 11.967731 11.264953 7.880589 6.703550 -2.778368 6.976973 -10.014893 55.478662 0.549249 28.103244 1.035995 0.000000 0.000000 0.000000 
4.797197 9.236752 2.927151 0.000000 0.000000 0.000000 81.668196 2.738183 -1.580973 6.654361 11.529747 18.794514 20.757491 17.394357 5.788508 33.039807 30.030542 -18.798221 -0.171242 1.221240 8.584627 0.000000 0.000000 0.000000 83.857108 -1.667044 -0.421108 -0.893515 -7.403624 -21.326501 6.971180 -2.360676 5.067028 41.975679 -22.480888 25.540345 18.784690 -2.292583 -12.006100 0.000000 0.000000 0.000000 87.029307 -1.336132 1.245086 2.716283 0.597521 -1.315465 0.691324 0.503489 0.054276 0.350160 -0.813887 0.552734 0.000000 0.000000 0.000000 -0.864954 0.330673 -0.242700 -4.613599 -12.268965 5.376423 -18.984980 -55.702795 -20.032737 0.000000 0.000000 0.000000 0.290622 0.262918 -0.364947 3.286549 -17.374318 -2.916060 -1.188472 -0.531153 -1.461274 22.788733 -20.109270 -56.569758 0.116016 -24.654227 -0.955548 0.000000 0.000000 0.000000 0.036804 0.758405 0.293495 -0.310925 11.969887 11.261898 7.903759 6.725739 -2.789154 6.937394 -10.060916 55.484874 0.580336 28.085340 1.021899 0.000000 0.000000 0.000000 
